<svg width="32" height="32" viewBox="0 0 32 32" fill="none" xmlns="http://www.w3.org/2000/svg">
  <circle cx="16" cy="16" r="16" fill="#0052FF"/>
  <path d="M14.5 7H17.5V9.1C18.8 9.3 19.8 9.8 20.5 10.5L18.8 12.2C18.2 11.7 17.5 11.4 16.7 11.3V14.5C18.5 14.8 20.5 15.5 20.5 18C20.5 20.2 18.8 21.8 16.7 22.1V25H14.5V22.9C13.2 22.7 12.2 22.2 11.5 21.5L13.2 19.8C13.8 20.3 14.5 20.6 15.3 20.7V17.5C13.5 17.2 11.5 16.5 11.5 14C11.5 11.8 13.2 10.2 15.3 9.9V7H14.5ZM16.7 18.8C17.3 18.7 17.8 18.4 17.8 18C17.8 17.6 17.3 17.3 16.7 17.2V18.8ZM15.3 13.2C14.7 13.3 14.2 13.6 14.2 14C14.2 14.4 14.7 14.7 15.3 14.8V13.2Z" fill="white"/>
  <circle cx="16" cy="16" r="3.5" stroke="white" stroke-width="1.5" fill="#0052FF"/>
  <text x="16" y="17.5" font-family="Arial" font-size="3.5" fill="white" text-anchor="middle" font-weight="bold">bc</text>
</svg>
